<?xml version="1.0" encoding="utf-8"?>
<!-- Svg Vector Icons : http://www.onlinewebfonts.com/icon -->
<!DOCTYPE svg PUBLIC "-//W3C//DTD SVG 1.1//EN" "http://www.w3.org/Graphics/SVG/1.1/DTD/svg11.dtd">
<svg version="1.1" xmlns="http://www.w3.org/2000/svg" xmlns:xlink="http://www.w3.org/1999/xlink" x="0px" y="0px" viewBox="0 0 1000 1000" enable-background="new 0 0 1000 1000" xml:space="preserve">
<metadata> Svg Vector Icons : http://www.onlinewebfonts.com/icon </metadata>
<g><g transform="translate(0.000000,512.000000) scale(0.100000,-0.100000)"><path d="M3507.5,4990.5c-338.8-72.7-666.2-327.4-821.2-639.4c-44-90-90-216.3-103.4-283.3l-23-118.7h-693H1172v-1920V110.9l-118.7-23c-201-38.3-423.1-162.7-591.5-329.2c-482.4-482.4-482.4-1244.3,0-1726.7c168.5-166.6,390.5-291,591.5-329.3l118.7-23v-693v-694.9h1920h1918.1l23-118.7c61.3-325.4,321.6-658.5,637.5-815.5c365.6-181.9,738.9-181.9,1108.4,0c312,153.1,578.1,492,639.4,815.5l23,118.7h693h694.9v694.9v693l120.6,23c319.7,61.3,656.6,325.4,813.6,637.5c181.9,363.7,181.9,740.8,1.9,1110.3c-155.1,312-492,574.3-817.4,637.5l-118.7,23v1918.1v1920h-1920H4991l-23,120.6c-13.4,65.1-59.3,191.4-105.3,281.4C4615.8,4845,4054.9,5109.2,3507.5,4990.5z M2582.9,3524.1c13.4-67,59.3-193.3,103.4-283.3c153.1-310.1,495.8-576.2,817.4-637.5c65.1-11.5,118.7-26.8,118.7-32.5c0-5.7-53.6-21-118.7-32.5c-67-13.4-193.3-59.3-283.3-103.4c-312-155.1-574.3-492-637.5-817.4l-23-118.7H2020h-541.7v1072v1072H2020h539.8L2582.9,3524.1z M6072.6,3101.1v-539.8l-118.7-23c-426.9-82.3-838.5-493.9-920.8-920.8c-11.5-65.1-26.8-118.7-32.5-118.7c-5.7,0-21.1,53.6-32.5,118.7c-82.3,426.9-493.9,838.5-920.8,920.8c-65.1,11.5-118.7,26.8-118.7,32.5c0,5.7,53.6,21.1,120.6,32.5c417.3,80.4,838.5,501.5,918.9,920.8l23,118.7h539.8h541.7V3101.1z M8522.9,2570.8v-1072h-541.7h-539.8l-23,120.6c-61.3,319.7-327.3,662.4-637.5,815.5c-90,44-216.3,90-283.3,103.4l-118.7,23v539.8v541.7h1072h1072V2570.8z M3995.6,2235.8c457.5-120.6,756.1-566.6,683.4-1028c-76.6-493.9-547.5-842.3-1037.6-767.6c-530.3,82.3-888.2,612.6-756.1,1121.8C3013.6,2055.9,3515.1,2360.2,3995.6,2235.8z M2582.9,1073.8c82.3-426.9,493.9-838.5,920.8-920.8c65.1-11.5,118.7-26.8,118.7-32.5c0-5.7-53.6-21-118.7-32.5c-426.9-82.3-838.5-493.9-920.8-920.8c-11.5-65.1-26.8-118.7-32.5-118.7c-5.7,0-21.1,53.6-32.5,118.7C2435.4-405.9,2023.9,5.6,1597,87.9l-118.7,23v539.8v541.7H2020h539.8L2582.9,1073.8z M5033.1,1073.8c13.4-67,59.3-193.3,103.4-283.3c153.1-310.1,495.8-576.2,817.4-637.5c65.1-11.5,118.7-26.8,118.7-32.5c0-5.7-53.6-21-118.7-32.5C5527,5.6,5115.5-405.9,5033.1-832.8c-11.5-65.1-26.8-118.7-32.5-118.7c-5.7,0-21.1,53.6-32.5,120.6c-61.3,319.7-327.3,662.4-637.5,815.5c-90,44-216.3,90-283.3,103.4c-65.1,11.5-118.7,26.8-118.7,32.5c0,5.7,53.6,21.1,120.6,32.5c417.3,80.4,838.5,501.6,918.9,920.8c11.5,65.1,26.8,118.7,32.5,118.7C5006.3,1192.5,5021.6,1138.9,5033.1,1073.8z M8522.9,650.8V110.9l-118.7-23c-426.9-82.3-838.5-493.9-920.8-920.8c-11.5-65.1-26.8-118.7-32.5-118.7c-5.7,0-21,53.6-32.5,118.7C7336-405.9,6924.5,5.6,6497.6,87.9c-65.1,11.5-118.7,26.8-118.7,32.5c0,5.7,51.7,21.1,116.8,32.5c63.2,11.5,189.5,59.3,281.4,103.4c314,155.1,580,493.9,641.3,817.4l23,118.7h539.8h541.7V650.8z M1545.3-214.5c329.3-86.1,583.9-342.6,670-673.8c124.4-476.7-180-978.2-670-1106.5c-480.5-124.4-982,180-1110.3,670C264.6-668.2,888.7-44.1,1545.3-214.5z M6445.9-214.5c490-128.3,794.4-629.8,670-1106.5c-86.1-331.2-340.7-587.7-670-673.8c-480.5-124.4-982,180-1110.3,670C5165.2-668.2,5789.3-44.1,6445.9-214.5z M8896.2-214.5c329.3-86.1,583.9-342.6,670-673.8c124.4-476.7-180-978.2-670-1106.5c-480.5-124.4-982,180-1110.3,670C7615.5-668.2,8239.6-44.1,8896.2-214.5z M2582.9-1376.5c13.4-67,59.3-193.3,103.4-283.3c153.1-310.1,495.8-576.2,817.4-637.5l118.7-23v-539.8v-541.7h-1072h-1072v541.7v539.8l120.6,23c417.3,80.4,838.5,501.6,918.9,920.8c11.5,65.1,26.8,118.7,32.5,118.7C2556-1257.8,2571.3-1311.4,2582.9-1376.5z M5033.1-1376.5c82.3-426.9,493.9-838.5,920.8-920.8c65.1-11.5,118.7-26.8,118.7-32.5c0-5.7-53.6-21-118.7-32.5c-426.9-82.3-838.5-493.9-920.8-920.8l-23-118.7h-539.8h-541.7v541.7v539.8l116.8,23c63.2,11.5,189.5,59.3,281.4,103.4c313.9,155,580,493.9,641.3,817.4c11.5,65.1,26.8,118.7,32.5,118.7C5006.3-1257.8,5021.6-1311.4,5033.1-1376.5z M7483.4-1376.5c82.3-426.9,493.9-838.5,920.8-920.8l118.7-23v-539.8v-541.7h-541.7h-539.8l-23,120.6c-61.3,319.7-327.3,662.4-637.5,815.5c-90,44-216.3,90-283.3,103.4c-65.1,11.5-118.7,26.8-118.7,32.5c0,5.7,53.6,21.1,120.6,32.5c417.3,80.4,838.5,501.6,918.9,920.8c11.5,65.1,26.8,118.7,32.5,118.7C7456.6-1257.8,7472-1311.4,7483.4-1376.5z"/></g></g>
</svg>